<?xml version="1.0" encoding="utf-8"?>
<!-- Generator: Adobe Illustrator 15.1.0, SVG Export Plug-In . SVG Version: 6.00 Build 0)  -->
<!DOCTYPE svg PUBLIC "-//W3C//DTD SVG 1.1//EN" "http://www.w3.org/Graphics/SVG/1.1/DTD/svg11.dtd">
<svg version="1.1" id="Layer_1" xmlns="http://www.w3.org/2000/svg" xmlns:xlink="http://www.w3.org/1999/xlink" x="0px" y="0px"
	 width="864px" height="648px" viewBox="0 0 864 648" enable-background="new 0 0 864 648" xml:space="preserve">
<g>
	<circle fill="none" stroke="#000000" stroke-width="0.25" stroke-miterlimit="10" cx="743.797" cy="334.304" r="4.687"/>
	
		<line fill="none" stroke="#000000" stroke-width="0.25" stroke-miterlimit="10" x1="825.776" y1="248.161" x2="825.692" y2="248.161"/>
	
		<line fill="none" stroke="#000000" stroke-width="0.25" stroke-miterlimit="10" x1="825.776" y1="248.161" x2="843.776" y2="248.161"/>
	<circle fill="none" stroke="#000000" stroke-width="0.25" stroke-miterlimit="10" cx="479.847" cy="334.304" r="4.687"/>
	
		<line fill="none" stroke="#000000" stroke-width="0.25" stroke-miterlimit="10" x1="843.776" y1="248.161" x2="843.984" y2="248.161"/>
	<path fill="none" stroke="#000000" stroke-width="0.25" stroke-miterlimit="10" d="M843.776,248.161v23.518
		c0,39.765-32.235,72-72,72H465.633"/>
	
		<line fill="none" stroke="#000000" stroke-width="0.25" stroke-miterlimit="10" x1="465.633" y1="325.679" x2="465.633" y2="343.679"/>
	<path fill="none" stroke="#000000" stroke-width="0.25" stroke-miterlimit="10" d="M465.633,325.679h288.144
		c39.765,0,72-32.235,72-72v-5.518"/>
</g>
<g>
	
		<line fill="none" stroke="#000000" stroke-width="0.25" stroke-miterlimit="10" x1="1864.2" y1="718.335" x2="1864.2" y2="300.335"/>
	
		<line fill="none" stroke="#000000" stroke-width="0.25" stroke-miterlimit="10" x1="1882.2" y1="718.335" x2="1882.201" y2="718.335"/>
	
		<line fill="none" stroke="#000000" stroke-width="0.25" stroke-miterlimit="10" x1="1864.2" y1="718.335" x2="1882.2" y2="718.335"/>
	
		<line fill="none" stroke="#000000" stroke-width="0.25" stroke-miterlimit="10" x1="1864.2" y1="300.335" x2="1863.992" y2="300.335"/>
	
		<line fill="none" stroke="#000000" stroke-width="0.25" stroke-miterlimit="10" x1="1864.284" y1="300.335" x2="1882.2" y2="300.335"/>
	
		<line fill="none" stroke="#000000" stroke-width="0.25" stroke-miterlimit="10" x1="1882.201" y1="300.335" x2="1882.2" y2="300.335"/>
	
		<line fill="none" stroke="#000000" stroke-width="0.25" stroke-miterlimit="10" x1="1864.2" y1="718.335" x2="1863.992" y2="718.335"/>
	<circle fill="none" stroke="#000000" stroke-width="0.25" stroke-miterlimit="10" cx="1780.305" cy="806.005" r="4.687"/>
	
		<line fill="none" stroke="#000000" stroke-width="0.25" stroke-miterlimit="10" x1="1504.36" y1="203.317" x2="1504.36" y2="221.317"/>
	<circle fill="none" stroke="#000000" stroke-width="0.25" stroke-miterlimit="10" cx="1873.388" cy="698.755" r="4.687"/>
	<circle fill="none" stroke="#000000" stroke-width="0.25" stroke-miterlimit="10" cx="1190.18" cy="212.692" r="4.687"/>
	<circle fill="none" stroke="#000000" stroke-width="0.25" stroke-miterlimit="10" cx="1517.271" cy="212.692" r="4.687"/>
	<circle fill="none" stroke="#000000" stroke-width="0.25" stroke-miterlimit="10" cx="1780.305" cy="212.692" r="4.687"/>
	
		<line fill="none" stroke="#000000" stroke-width="0.25" stroke-miterlimit="10" x1="1504.36" y1="203.317" x2="1468.344" y2="203.317"/>
	<circle fill="none" stroke="#000000" stroke-width="0.25" stroke-miterlimit="10" cx="1873.388" cy="317.005" r="4.687"/>
	<circle fill="none" stroke="#000000" stroke-width="0.25" stroke-miterlimit="10" cx="1190.18" cy="805.13" r="4.687"/>
	
		<line fill="none" stroke="#000000" stroke-width="0.25" stroke-miterlimit="10" x1="1108.326" y1="715.835" x2="1108.2" y2="715.835"/>
	
		<line fill="none" stroke="#000000" stroke-width="0.25" stroke-miterlimit="10" x1="1108.2" y1="715.835" x2="1090.2" y2="715.835"/>
	<circle fill="none" stroke="#000000" stroke-width="0.25" stroke-miterlimit="10" cx="1098.938" cy="698.755" r="4.687"/>
	
		<line fill="none" stroke="#000000" stroke-width="0.25" stroke-miterlimit="10" x1="1108.2" y1="298.835" x2="1108.285" y2="298.835"/>
	
		<line fill="none" stroke="#000000" stroke-width="0.25" stroke-miterlimit="10" x1="1108.2" y1="298.835" x2="1090.2" y2="298.835"/>
	<circle fill="none" stroke="#000000" stroke-width="0.25" stroke-miterlimit="10" cx="1098.938" cy="317.005" r="4.687"/>
	<circle fill="none" stroke="#000000" stroke-width="0.25" stroke-miterlimit="10" cx="1454.13" cy="212.692" r="4.687"/>
	
		<line fill="none" stroke="#000000" stroke-width="0.25" stroke-miterlimit="10" x1="1090.2" y1="298.835" x2="1089.992" y2="298.835"/>
	<path fill="none" stroke="#000000" stroke-width="0.25" stroke-miterlimit="10" d="M1090.2,298.835v-23.518
		c0-39.765,32.235-72,72-72h306.144"/>
	
		<line fill="none" stroke="#000000" stroke-width="0.25" stroke-miterlimit="10" x1="1882.2" y1="718.335" x2="1882.2" y2="300.335"/>
	<path fill="none" stroke="#000000" stroke-width="0.25" stroke-miterlimit="10" d="M1882.2,718.335v24.982
		c0,39.765-32.235,72-72,72h-648c-39.765,0-72-32.235-72-72v-27.482"/>
	<path fill="none" stroke="#000000" stroke-width="0.25" stroke-miterlimit="10" d="M1504.36,203.317h305.84
		c39.765,0,72,32.235,72,72v25.018"/>
	
		<line fill="none" stroke="#000000" stroke-width="0.25" stroke-miterlimit="10" x1="1089.992" y1="715.835" x2="1090.2" y2="715.835"/>
	
		<line fill="none" stroke="#000000" stroke-width="0.25" stroke-miterlimit="10" x1="1468.344" y1="221.317" x2="1468.344" y2="203.317"/>
	
		<line fill="none" stroke="#000000" stroke-width="0.25" stroke-miterlimit="10" x1="1468.344" y1="221.317" x2="1504.36" y2="221.317"/>
	<path fill="none" stroke="#000000" stroke-width="0.25" stroke-miterlimit="10" d="M1468.344,221.317H1180.2
		c-39.765,0-72,32.235-72,72v5.518"/>
	<path fill="none" stroke="#000000" stroke-width="0.25" stroke-miterlimit="10" d="M1108.2,715.835v9.482c0,39.765,32.235,72,72,72
		h612c39.765,0,72-32.235,72-72v-6.982"/>
	
		<line fill="none" stroke="#000000" stroke-width="0.25" stroke-miterlimit="10" x1="1108.2" y1="715.835" x2="1108.2" y2="298.835"/>
	
		<line fill="none" stroke="#000000" stroke-width="0.25" stroke-miterlimit="10" x1="1090.2" y1="298.835" x2="1090.2" y2="715.835"/>
	<path fill="none" stroke="#000000" stroke-width="0.25" stroke-miterlimit="10" d="M1864.2,300.335v-7.018
		c0-39.765-32.235-72-72-72h-287.84"/>
</g>
<g>
	
		<line fill="none" stroke="#000000" stroke-width="0.25" stroke-miterlimit="10" x1="59.796" y1="289.325" x2="60.004" y2="289.325"/>
	
		<line fill="none" stroke="#000000" stroke-width="0.25" stroke-miterlimit="10" x1="59.712" y1="289.325" x2="41.796" y2="289.325"/>
	
		<line fill="none" stroke="#000000" stroke-width="0.25" stroke-miterlimit="10" x1="41.795" y1="289.325" x2="41.796" y2="289.325"/>
	
		<line fill="none" stroke="#000000" stroke-width="0.25" stroke-miterlimit="10" x1="419.636" y1="386.343" x2="419.636" y2="368.343"/>
	<circle fill="none" stroke="#000000" stroke-width="0.25" stroke-miterlimit="10" cx="406.726" cy="376.968" r="4.687"/>
	<circle fill="none" stroke="#000000" stroke-width="0.25" stroke-miterlimit="10" cx="143.691" cy="376.968" r="4.687"/>
	<path fill="none" stroke="#000000" stroke-width="0.25" stroke-miterlimit="10" d="M419.636,386.343h-305.84
		c-39.765,0-72-32.235-72-72v-25.018"/>
	<path fill="none" stroke="#000000" stroke-width="0.25" stroke-miterlimit="10" d="M59.796,289.325v7.018c0,39.765,32.235,72,72,72
		h287.84"/>
</g>
<line fill="none" stroke="#000000" stroke-width="0.25" stroke-miterlimit="10" x1="709.76" y1="91.59" x2="291.76" y2="91.59"/>
<line fill="none" stroke="#000000" stroke-width="0.25" stroke-miterlimit="10" x1="709.76" y1="73.59" x2="709.76" y2="73.589"/>
<line fill="none" stroke="#000000" stroke-width="0.25" stroke-miterlimit="10" x1="709.76" y1="91.59" x2="709.76" y2="73.59"/>
<line fill="none" stroke="#000000" stroke-width="0.25" stroke-miterlimit="10" x1="291.76" y1="91.59" x2="291.76" y2="91.798"/>
<line fill="none" stroke="#000000" stroke-width="0.25" stroke-miterlimit="10" x1="291.76" y1="91.506" x2="291.76" y2="73.59"/>
<line fill="none" stroke="#000000" stroke-width="0.25" stroke-miterlimit="10" x1="291.76" y1="73.589" x2="291.76" y2="73.59"/>
<line fill="none" stroke="#000000" stroke-width="0.25" stroke-miterlimit="10" x1="709.76" y1="91.59" x2="709.76" y2="91.798"/>
<circle fill="none" stroke="#000000" stroke-width="0.25" stroke-miterlimit="10" cx="690.18" cy="82.402" r="4.687"/>
<circle fill="none" stroke="#000000" stroke-width="0.25" stroke-miterlimit="10" cx="308.43" cy="82.402" r="4.687"/>
<line fill="none" stroke="#000000" stroke-width="0.25" stroke-miterlimit="10" x1="709.76" y1="73.59" x2="291.76" y2="73.59"/>
<g>
	
		<line fill="none" stroke="#000000" stroke-width="0.25" stroke-miterlimit="10" x1="709.252" y1="97.709" x2="709.252" y2="97.835"/>
	
		<line fill="none" stroke="#000000" stroke-width="0.25" stroke-miterlimit="10" x1="709.252" y1="97.835" x2="709.252" y2="115.835"/>
	<circle fill="none" stroke="#000000" stroke-width="0.25" stroke-miterlimit="10" cx="692.172" cy="107.098" r="4.687"/>
	
		<line fill="none" stroke="#000000" stroke-width="0.25" stroke-miterlimit="10" x1="292.252" y1="97.835" x2="292.252" y2="97.75"/>
	
		<line fill="none" stroke="#000000" stroke-width="0.25" stroke-miterlimit="10" x1="292.252" y1="97.835" x2="292.252" y2="115.835"/>
	<circle fill="none" stroke="#000000" stroke-width="0.25" stroke-miterlimit="10" cx="310.422" cy="107.098" r="4.687"/>
	
		<line fill="none" stroke="#000000" stroke-width="0.25" stroke-miterlimit="10" x1="292.252" y1="115.835" x2="292.252" y2="116.043"/>
	
		<line fill="none" stroke="#000000" stroke-width="0.25" stroke-miterlimit="10" x1="709.252" y1="116.043" x2="709.252" y2="115.835"/>
	
		<line fill="none" stroke="#000000" stroke-width="0.25" stroke-miterlimit="10" x1="709.252" y1="97.835" x2="292.252" y2="97.835"/>
	
		<line fill="none" stroke="#000000" stroke-width="0.25" stroke-miterlimit="10" x1="292.252" y1="115.835" x2="709.252" y2="115.835"/>
</g>
<g>
	
		<line fill="none" stroke="#000000" stroke-width="0.25" stroke-miterlimit="10" x1="802.114" y1="531.002" x2="802.115" y2="531.002"/>
	
		<line fill="none" stroke="#000000" stroke-width="0.25" stroke-miterlimit="10" x1="784.114" y1="531.002" x2="802.114" y2="531.002"/>
	
		<line fill="none" stroke="#000000" stroke-width="0.25" stroke-miterlimit="10" x1="784.114" y1="531.002" x2="783.906" y2="531.002"/>
	<circle fill="none" stroke="#000000" stroke-width="0.25" stroke-miterlimit="10" cx="700.219" cy="618.672" r="4.687"/>
	<circle fill="none" stroke="#000000" stroke-width="0.25" stroke-miterlimit="10" cx="110.094" cy="617.797" r="4.687"/>
	
		<line fill="none" stroke="#000000" stroke-width="0.25" stroke-miterlimit="10" x1="28.24" y1="528.502" x2="28.114" y2="528.502"/>
	
		<line fill="none" stroke="#000000" stroke-width="0.25" stroke-miterlimit="10" x1="28.114" y1="528.502" x2="10.114" y2="528.502"/>
	<path fill="none" stroke="#000000" stroke-width="0.25" stroke-miterlimit="10" d="M802.114,531.002v24.982
		c0,39.765-32.235,72-72,72h-648c-39.765,0-72-32.235-72-72v-27.482"/>
	
		<line fill="none" stroke="#000000" stroke-width="0.25" stroke-miterlimit="10" x1="9.906" y1="528.502" x2="10.114" y2="528.502"/>
	<path fill="none" stroke="#000000" stroke-width="0.25" stroke-miterlimit="10" d="M28.114,528.502v9.482c0,39.765,32.235,72,72,72
		h612c39.765,0,72-32.235,72-72v-6.982"/>
</g>
<g>
	
		<line fill="none" stroke="#000000" stroke-width="0.25" stroke-miterlimit="10" x1="80.688" y1="268.161" x2="80.896" y2="268.161"/>
	
		<line fill="none" stroke="#000000" stroke-width="0.25" stroke-miterlimit="10" x1="80.604" y1="268.161" x2="62.688" y2="268.161"/>
	
		<line fill="none" stroke="#000000" stroke-width="0.25" stroke-miterlimit="10" x1="62.688" y1="268.161" x2="62.688" y2="268.161"/>
	
		<line fill="none" stroke="#000000" stroke-width="0.25" stroke-miterlimit="10" x1="440.528" y1="365.179" x2="440.528" y2="347.179"/>
	<circle fill="none" stroke="#000000" stroke-width="0.25" stroke-miterlimit="10" cx="427.618" cy="355.804" r="4.687"/>
	<circle fill="none" stroke="#000000" stroke-width="0.25" stroke-miterlimit="10" cx="164.584" cy="355.804" r="4.687"/>
	<path fill="none" stroke="#000000" stroke-width="0.25" stroke-miterlimit="10" d="M440.528,365.179h-305.84
		c-39.765,0-72-32.235-72-72v-25.018"/>
	<path fill="none" stroke="#000000" stroke-width="0.25" stroke-miterlimit="10" d="M80.688,268.161v7.018c0,39.765,32.235,72,72,72
		h287.84"/>
</g>
<g>
	
		<line fill="none" stroke="#000000" stroke-width="0.25" stroke-miterlimit="10" x1="101.703" y1="244.144" x2="101.911" y2="244.144"/>
	
		<line fill="none" stroke="#000000" stroke-width="0.25" stroke-miterlimit="10" x1="101.619" y1="244.144" x2="83.703" y2="244.144"/>
	
		<line fill="none" stroke="#000000" stroke-width="0.25" stroke-miterlimit="10" x1="83.702" y1="244.144" x2="83.703" y2="244.144"/>
	
		<line fill="none" stroke="#000000" stroke-width="0.25" stroke-miterlimit="10" x1="461.543" y1="341.161" x2="461.543" y2="323.161"/>
	<circle fill="none" stroke="#000000" stroke-width="0.25" stroke-miterlimit="10" cx="448.633" cy="331.786" r="4.687"/>
	<circle fill="none" stroke="#000000" stroke-width="0.25" stroke-miterlimit="10" cx="185.599" cy="331.786" r="4.687"/>
	<path fill="none" stroke="#000000" stroke-width="0.25" stroke-miterlimit="10" d="M461.543,341.161h-305.84
		c-39.765,0-72-32.235-72-72v-25.018"/>
	<path fill="none" stroke="#000000" stroke-width="0.25" stroke-miterlimit="10" d="M101.703,244.144v7.018
		c0,39.765,32.235,72,72,72h287.84"/>
</g>
<g>
	<circle fill="none" stroke="#000000" stroke-width="0.25" stroke-miterlimit="10" cx="721.917" cy="312.074" r="4.687"/>
	
		<line fill="none" stroke="#000000" stroke-width="0.25" stroke-miterlimit="10" x1="803.896" y1="225.932" x2="803.812" y2="225.932"/>
	
		<line fill="none" stroke="#000000" stroke-width="0.25" stroke-miterlimit="10" x1="803.896" y1="225.932" x2="821.896" y2="225.932"/>
	<circle fill="none" stroke="#000000" stroke-width="0.25" stroke-miterlimit="10" cx="457.967" cy="312.074" r="4.687"/>
	
		<line fill="none" stroke="#000000" stroke-width="0.25" stroke-miterlimit="10" x1="821.896" y1="225.932" x2="822.104" y2="225.932"/>
	<path fill="none" stroke="#000000" stroke-width="0.25" stroke-miterlimit="10" d="M821.896,225.932v23.518
		c0,39.765-32.235,72-72,72H443.753"/>
	
		<line fill="none" stroke="#000000" stroke-width="0.25" stroke-miterlimit="10" x1="443.753" y1="303.449" x2="443.753" y2="321.449"/>
	<path fill="none" stroke="#000000" stroke-width="0.25" stroke-miterlimit="10" d="M443.753,303.449h288.144
		c39.765,0,72-32.235,72-72v-5.518"/>
</g>
<g>
	<circle fill="none" stroke="#000000" stroke-width="0.25" stroke-miterlimit="10" cx="698.898" cy="290.055" r="4.687"/>
	
		<line fill="none" stroke="#000000" stroke-width="0.25" stroke-miterlimit="10" x1="780.878" y1="203.912" x2="780.794" y2="203.912"/>
	
		<line fill="none" stroke="#000000" stroke-width="0.25" stroke-miterlimit="10" x1="780.878" y1="203.912" x2="798.878" y2="203.912"/>
	<circle fill="none" stroke="#000000" stroke-width="0.25" stroke-miterlimit="10" cx="434.948" cy="290.055" r="4.687"/>
	
		<line fill="none" stroke="#000000" stroke-width="0.25" stroke-miterlimit="10" x1="798.878" y1="203.912" x2="799.086" y2="203.912"/>
	<path fill="none" stroke="#000000" stroke-width="0.25" stroke-miterlimit="10" d="M798.878,203.912v23.518
		c0,39.765-32.235,72-72,72H420.734"/>
	
		<line fill="none" stroke="#000000" stroke-width="0.25" stroke-miterlimit="10" x1="420.734" y1="281.43" x2="420.734" y2="299.43"/>
	<path fill="none" stroke="#000000" stroke-width="0.25" stroke-miterlimit="10" d="M420.734,281.43h288.144
		c39.765,0,72-32.235,72-72v-5.518"/>
</g>
<line fill="none" stroke="#000000" stroke-width="0.25" stroke-miterlimit="10" x1="708.846" y1="137.59" x2="290.846" y2="137.59"/>
<line fill="none" stroke="#000000" stroke-width="0.25" stroke-miterlimit="10" x1="708.846" y1="119.59" x2="708.846" y2="119.589"/>
<line fill="none" stroke="#000000" stroke-width="0.25" stroke-miterlimit="10" x1="708.846" y1="137.59" x2="708.846" y2="119.59"/>
<line fill="none" stroke="#000000" stroke-width="0.25" stroke-miterlimit="10" x1="290.846" y1="137.59" x2="290.846" y2="137.798"/>
<line fill="none" stroke="#000000" stroke-width="0.25" stroke-miterlimit="10" x1="290.846" y1="137.506" x2="290.846" y2="119.59"/>
<line fill="none" stroke="#000000" stroke-width="0.25" stroke-miterlimit="10" x1="290.846" y1="119.589" x2="290.846" y2="119.59"/>
<line fill="none" stroke="#000000" stroke-width="0.25" stroke-miterlimit="10" x1="708.846" y1="137.59" x2="708.846" y2="137.798"/>
<circle fill="none" stroke="#000000" stroke-width="0.25" stroke-miterlimit="10" cx="689.266" cy="128.402" r="4.687"/>
<circle fill="none" stroke="#000000" stroke-width="0.25" stroke-miterlimit="10" cx="307.516" cy="128.402" r="4.687"/>
<line fill="none" stroke="#000000" stroke-width="0.25" stroke-miterlimit="10" x1="708.846" y1="119.59" x2="290.846" y2="119.59"/>
<g>
	
		<line fill="none" stroke="#000000" stroke-width="0.25" stroke-miterlimit="10" x1="708.338" y1="143.709" x2="708.338" y2="143.835"/>
	
		<line fill="none" stroke="#000000" stroke-width="0.25" stroke-miterlimit="10" x1="708.338" y1="143.835" x2="708.338" y2="161.835"/>
	<circle fill="none" stroke="#000000" stroke-width="0.25" stroke-miterlimit="10" cx="691.258" cy="153.098" r="4.687"/>
	
		<line fill="none" stroke="#000000" stroke-width="0.25" stroke-miterlimit="10" x1="291.338" y1="143.835" x2="291.338" y2="143.75"/>
	
		<line fill="none" stroke="#000000" stroke-width="0.25" stroke-miterlimit="10" x1="291.338" y1="143.835" x2="291.338" y2="161.835"/>
	<circle fill="none" stroke="#000000" stroke-width="0.25" stroke-miterlimit="10" cx="309.508" cy="153.098" r="4.687"/>
	
		<line fill="none" stroke="#000000" stroke-width="0.25" stroke-miterlimit="10" x1="291.338" y1="161.835" x2="291.338" y2="162.043"/>
	
		<line fill="none" stroke="#000000" stroke-width="0.25" stroke-miterlimit="10" x1="708.338" y1="162.043" x2="708.338" y2="161.835"/>
	
		<line fill="none" stroke="#000000" stroke-width="0.25" stroke-miterlimit="10" x1="708.338" y1="143.835" x2="291.338" y2="143.835"/>
	
		<line fill="none" stroke="#000000" stroke-width="0.25" stroke-miterlimit="10" x1="291.338" y1="161.835" x2="708.338" y2="161.835"/>
</g>
<line fill="none" stroke="#000000" stroke-width="0.25" stroke-miterlimit="10" x1="708.846" y1="43.518" x2="290.846" y2="43.518"/>
<line fill="none" stroke="#000000" stroke-width="0.25" stroke-miterlimit="10" x1="708.846" y1="25.518" x2="708.846" y2="25.517"/>
<line fill="none" stroke="#000000" stroke-width="0.25" stroke-miterlimit="10" x1="708.846" y1="43.518" x2="708.846" y2="25.518"/>
<line fill="none" stroke="#000000" stroke-width="0.25" stroke-miterlimit="10" x1="290.846" y1="43.518" x2="290.846" y2="43.726"/>
<line fill="none" stroke="#000000" stroke-width="0.25" stroke-miterlimit="10" x1="290.846" y1="43.434" x2="290.846" y2="25.518"/>
<line fill="none" stroke="#000000" stroke-width="0.25" stroke-miterlimit="10" x1="290.846" y1="25.517" x2="290.846" y2="25.518"/>
<line fill="none" stroke="#000000" stroke-width="0.25" stroke-miterlimit="10" x1="708.846" y1="43.518" x2="708.846" y2="43.726"/>
<circle fill="none" stroke="#000000" stroke-width="0.25" stroke-miterlimit="10" cx="689.266" cy="34.33" r="4.687"/>
<circle fill="none" stroke="#000000" stroke-width="0.25" stroke-miterlimit="10" cx="307.516" cy="34.33" r="4.687"/>
<line fill="none" stroke="#000000" stroke-width="0.25" stroke-miterlimit="10" x1="708.846" y1="25.518" x2="290.846" y2="25.518"/>
<g>
	
		<line fill="none" stroke="#000000" stroke-width="0.25" stroke-miterlimit="10" x1="708.338" y1="49.637" x2="708.338" y2="49.763"/>
	
		<line fill="none" stroke="#000000" stroke-width="0.25" stroke-miterlimit="10" x1="708.338" y1="49.763" x2="708.338" y2="67.763"/>
	<circle fill="none" stroke="#000000" stroke-width="0.25" stroke-miterlimit="10" cx="691.258" cy="59.025" r="4.687"/>
	
		<line fill="none" stroke="#000000" stroke-width="0.25" stroke-miterlimit="10" x1="291.338" y1="49.763" x2="291.338" y2="49.678"/>
	
		<line fill="none" stroke="#000000" stroke-width="0.25" stroke-miterlimit="10" x1="291.338" y1="49.763" x2="291.338" y2="67.763"/>
	<circle fill="none" stroke="#000000" stroke-width="0.25" stroke-miterlimit="10" cx="309.508" cy="59.025" r="4.687"/>
	
		<line fill="none" stroke="#000000" stroke-width="0.25" stroke-miterlimit="10" x1="291.338" y1="67.763" x2="291.338" y2="67.971"/>
	
		<line fill="none" stroke="#000000" stroke-width="0.25" stroke-miterlimit="10" x1="708.338" y1="67.971" x2="708.338" y2="67.763"/>
	
		<line fill="none" stroke="#000000" stroke-width="0.25" stroke-miterlimit="10" x1="708.338" y1="49.763" x2="291.338" y2="49.763"/>
	
		<line fill="none" stroke="#000000" stroke-width="0.25" stroke-miterlimit="10" x1="291.338" y1="67.763" x2="708.338" y2="67.763"/>
</g>
</svg>
